<svg id="Capa_1" enable-background="new 0 0 500.679 500.679" height="512" viewBox="0 0 500.679 500.679" width="512" xmlns="http://www.w3.org/2000/svg"><g><path d="m340.529 498.067h-330.27c-4.142 0-7.5-3.357-7.5-7.5s3.358-7.5 7.5-7.5h330.27c4.143 0 7.5 3.357 7.5 7.5s-3.357 7.5-7.5 7.5z" fill="#aa9ea9"/></g><path d="m414.977 36.698-28.43-23.85c-17.98-15.1-44.36-13.28-58.9 4.05l-32.05 38.2 3.877 22.772 68.223 58.223 21.47-2.475 32.05-38.2c14.54-17.34 11.75-43.62-6.24-58.72z" fill="#efedef"/><path d="m337.872 107.101-3.877-22.772 32.05-38.2c11.498-13.704 30.397-17.699 46.694-11.309l-26.192-21.972c-17.98-15.1-44.36-13.28-58.9 4.05l-32.05 38.2 3.877 22.772 68.223 58.223 3.653-.421z" fill="#e5e1e5"/><path d="m26.488 394.668-19.831 4.74-4.97 5.927c-1.146 1.367-1.745 3.109-1.682 4.892l1.532 43.421 11.453 24.28 14.094 11.95 22.403 2.26 41.246-5.785c1.766-.248 3.378-1.141 4.525-2.507l4.969-5.918 2.099-20.339z" fill="#fae2c0"/><g><g id="XMLID_864_"><g><g><path d="m493.179 498.067h-113.28c-4.143 0-7.5-3.357-7.5-7.5s3.357-7.5 7.5-7.5h113.28c4.143 0 7.5 3.357 7.5 7.5s-3.357 7.5-7.5 7.5z" fill="#aa9ea9"/></g></g><g><path d="m389.157 133.608-93.56-78.51-21.47 25.57-9.117 32.493 60.529 60.528 42.158-14.501 21.47-25.57z" fill="#f47c7c"/><path d="m332.581 86.133-36.984-31.035-21.47 25.57-9.117 32.493 60.529 60.528 42.158-14.501 8.49-10.112-40.982-34.138c-8.679-7.23-9.854-20.126-2.624-28.805z" fill="#ee6161"/><path d="m338.427 134.628-37.78 14.17-17.471-15.266 22.291-26.564-31.34-26.3-267.47 318.74 31.34 26.3 20.933-24.946 25.859 36.113-13.832 16.483 29.27 24.57 267.47-318.74z" fill="#fee45a"/><path d="m-19.834 258.653h416.092v43.025h-416.092z" fill="#e94444" transform="matrix(.643 -.766 .766 .643 -147.386 244.238)"/></g></g></g><path d="m1.481 452.059.056 1.589 1.26 35.92c.17 4.79 4.57 8.47 9.31 7.81l37.38-5.24z" fill="#aa9ea9"/></svg>